<?xml version="1.0" encoding="utf-8"?>
<!-- Generator: Adobe Illustrator 16.0.4, SVG Export Plug-In . SVG Version: 6.00 Build 0)  -->
<!DOCTYPE svg PUBLIC "-//W3C//DTD SVG 1.1//EN" "http://www.w3.org/Graphics/SVG/1.1/DTD/svg11.dtd">
<svg version="1.1" id="レイヤー_1" xmlns="http://www.w3.org/2000/svg" xmlns:xlink="http://www.w3.org/1999/xlink" x="0px"
	 y="0px" width="50px" height="24px" viewBox="0 0 50 24" enable-background="new 0 0 50 24" xml:space="preserve">
<g>
	<path fill="#F2B3BF" d="M3.855,20.054c-0.172-0.003-0.346-0.009-0.521-0.016c-0.745-0.028-0.986-0.04-1.057-0.045l-0.146-0.01
		l-0.11-2.209l0.206,0.023c0.119,0.014,0.473,0.038,1.023,0.069c0.24,0.014,0.502,0.022,0.782,0.026
		c0.368,0.005,0.709-0.019,1.138-0.026c0.457-0.009,1.055-0.083,1.778-0.219c0.717-0.134,1.272-0.3,1.648-0.493
		c0.489-0.253,0.865-0.555,1.118-0.898c0.25-0.339,0.367-0.757,0.356-1.278c-0.011-0.553-0.15-1.023-0.415-1.396
		c-0.269-0.381-0.723-0.753-1.349-1.105c-0.414-0.235-0.957-0.502-1.614-0.792c-0.669-0.296-1.282-0.607-1.819-0.925
		C3.944,10.22,3.266,9.612,2.857,8.951C2.447,8.289,2.23,7.537,2.214,6.717C2.197,5.88,2.366,5.139,2.716,4.514
		c0.346-0.618,0.806-1.157,1.368-1.603c0.571-0.446,1.282-0.79,2.11-1.022c0.821-0.23,1.748-0.357,2.754-0.377
		c0.416-0.008,0.843-0.008,1.27,0.002c0.133,0.002,0.267,0.006,0.4,0.011c0.571,0.02,0.888,0.034,0.97,0.041l0.137,0.013
		l0.202,2.211l-0.207-0.017c-0.079-0.006-0.401-0.028-0.964-0.064c-0.252-0.017-0.537-0.027-0.845-0.031
		C9.542,3.672,9.19,3.695,8.746,3.704C8.267,3.713,7.766,3.778,7.258,3.895c-0.502,0.116-0.947,0.29-1.321,0.516
		C5.612,4.607,5.333,4.88,5.109,5.222c-0.222,0.34-0.326,0.726-0.316,1.179C4.801,6.804,4.927,7.18,5.178,7.551
		C5.43,7.922,5.91,8.311,6.605,8.704c0.358,0.209,0.842,0.453,1.435,0.725c0.602,0.275,1.201,0.579,1.781,0.902
		c0.91,0.513,1.61,1.119,2.08,1.802c0.475,0.69,0.725,1.492,0.743,2.385c0.019,0.936-0.189,1.771-0.618,2.487
		c-0.427,0.711-1.016,1.3-1.75,1.749c-0.664,0.407-1.439,0.726-2.304,0.943c-0.86,0.218-1.828,0.338-2.876,0.359
		C4.699,20.064,4.281,20.063,3.855,20.054z"/>
	<path fill="#B5B0CA" d="M23.069,20l0.011-0.213c0.008-0.168,0.011-0.945,0.023-1.922c0.013-0.982-0.011-1.765-0.011-2.1
		c0-0.366-0.002-0.737-0.007-1.451c-0.004-0.711-0.011-1.237-0.02-1.565c-0.024-0.743-0.194-1.275-0.505-1.578
		c-0.292-0.285-0.835-0.429-1.614-0.429c-0.458,0-1.066,0.116-1.808,0.344c-0.712,0.219-1.474,0.557-2.266,0.923L16.958,23h-2.835
		l0.009-0.318c0.009-0.277,0.05-4.12,0.063-6.045c0.013-1.932,0.02-3.555,0.02-4.802c0-0.817-0.002-1.852-0.006-3.096
		c-0.004-1.247-0.02-4.6-0.046-6.593L14.157,2h2.771l-0.052,8.219c1.054-0.455,1.945-0.883,2.654-1.076
		c0.833-0.227,1.563-0.392,2.17-0.392c1.217,0,2.213,0.289,2.958,0.908c0.742,0.617,1.119,1.452,1.119,2.506
		c0,0.885-0.007,1.654-0.02,2.296c-0.013,0.641-0.02,0.996-0.02,1.394c0,0.64-0.021,1.43-0.004,2.196
		c0.017,0.774,0.021,1.496,0.03,1.739L25.771,20H23.069z"/>
	<path fill="#9BB5AE" d="M28.031,20l0.022-0.363c0.006-0.08,0.016-0.554,0.032-2.227c0.013-1.348,0.02-2.491,0.02-3.37
		c0-0.771-0.002-1.879-0.007-2.804c-0.004-0.922-0.02-2.574-0.046-3.807L28.047,7h2.774l-0.005,0.425
		C30.799,8.503,30.783,10,30.771,10.94c-0.014,0.934-0.02,2.065-0.02,2.794c0,1.739-0.045,3.167-0.022,4.211
		c0.028,1.397,0.026,1.594,0.026,1.615L30.771,20H28.031z M28,4V2h3v2H28z"/>
	<path fill="#A58C7A" d="M44.688,21.654c-1.647-1.75-6.269-6.487-8.734-9.08c0.371-0.361,0.676-0.65,1.589-1.543
		c1.129-1.102,2.237-2.011,3.296-3.033l0.243-0.235l-1.757-1.82l-0.243,0.258c-0.938,0.995-2.162,2.119-3.641,3.614
		c-0.003-1.138-0.004-2.16-0.004-2.359c0-0.232,0.002-0.971,0.007-2.207c0.004-1.225,0.02-2.295,0.046-3.23L35.496,2h-2.773
		l0.004,0.021c0.026,1.169,0.042,2.306,0.047,3.213c0.004,0.909,0.006,1.615,0.006,2.212c0,1.388-0.006,6.437-0.02,8.645
		c-0.017,2.743-0.048,3.447-0.054,3.55L32.686,20h2.851l-0.017-0.402c0-0.123-0.032-1.236-0.047-3.79
		c1.704,1.654,5.645,5.598,7.474,7.46l0.227,0.235l1.753-1.601L44.688,21.654z"/>
	<path fill="#D98484" d="M45.335,20l0.022-0.395c0.006-0.078,0.016-0.567,0.032-2.24c0.013-1.348,0.02-2.499,0.02-3.377
		c0-0.771-0.002-1.884-0.007-2.808c-0.004-0.922-0.02-2.546-0.046-3.779L45.351,7h2.774L48.12,7.396
		c-0.018,1.077-0.033,2.561-0.046,3.5c-0.014,0.934-0.02,2.057-0.02,2.786c0,1.74-0.045,3.164-0.022,4.207
		c0.028,1.397,0.026,1.622,0.026,1.645L48.075,20H45.335z M45,4V2h3v2H45z"/>
</g>
</svg>
