<?xml version="1.0" encoding="utf-8"?>
<!-- Generator: Adobe Illustrator 16.0.4, SVG Export Plug-In . SVG Version: 6.00 Build 0)  -->
<!DOCTYPE svg PUBLIC "-//W3C//DTD SVG 1.1//EN" "http://www.w3.org/Graphics/SVG/1.1/DTD/svg11.dtd">
<svg version="1.1" id="レイヤー_1" xmlns="http://www.w3.org/2000/svg" xmlns:xlink="http://www.w3.org/1999/xlink" x="0px"
	 y="0px" width="20px" height="14px" viewBox="0 0 20 14" enable-background="new 0 0 20 14" xml:space="preserve">
<g>
	<path fill="#F2B3BF" d="M-3.421,12.31c-0.11-0.003-0.22-0.006-0.332-0.011c-0.474-0.018-0.628-0.025-0.673-0.028l-0.093-0.007
		l-0.07-1.405l0.131,0.016c0.075,0.009,0.3,0.023,0.651,0.044c0.152,0.008,0.32,0.014,0.498,0.017
		c0.234,0.003,0.451-0.012,0.724-0.018c0.291-0.005,0.671-0.052,1.131-0.139c0.457-0.085,0.81-0.19,1.049-0.314
		c0.311-0.16,0.55-0.353,0.711-0.571C0.465,9.678,0.54,9.411,0.533,9.079C0.526,8.728,0.437,8.429,0.269,8.19
		c-0.171-0.242-0.46-0.479-0.858-0.703c-0.264-0.15-0.609-0.32-1.027-0.504c-0.426-0.188-0.816-0.387-1.158-0.588
		c-0.591-0.343-1.022-0.73-1.283-1.151c-0.261-0.421-0.399-0.9-0.409-1.421C-4.477,3.29-4.369,2.818-4.146,2.42
		c0.22-0.394,0.513-0.737,0.871-1.02C-2.913,1.117-2.46,0.897-1.933,0.75c0.523-0.146,1.112-0.227,1.753-0.24
		c0.265-0.005,0.536-0.005,0.808,0.001c0.084,0.002,0.169,0.004,0.255,0.007C1.246,0.531,1.448,0.539,1.5,0.544l0.087,0.008
		l0.129,1.407L1.584,1.948C1.533,1.944,1.329,1.93,0.97,1.907c-0.16-0.01-0.341-0.017-0.537-0.02
		C0.197,1.884-0.026,1.899-0.31,1.905c-0.305,0.006-0.623,0.047-0.947,0.122C-1.576,2.1-1.859,2.211-2.097,2.354
		c-0.207,0.125-0.384,0.298-0.527,0.516c-0.141,0.217-0.207,0.462-0.201,0.75C-2.82,3.877-2.74,4.116-2.58,4.353
		c0.16,0.237,0.466,0.483,0.908,0.734c0.228,0.133,0.536,0.288,0.914,0.46c0.382,0.175,0.764,0.369,1.133,0.575
		C0.954,6.448,1.4,6.834,1.699,7.269c0.302,0.439,0.461,0.949,0.473,1.518c0.012,0.595-0.121,1.128-0.393,1.582
		c-0.271,0.453-0.646,0.828-1.114,1.114c-0.422,0.259-0.916,0.461-1.466,0.6c-0.547,0.139-1.163,0.216-1.83,0.229
		C-2.884,12.315-3.15,12.315-3.421,12.31z"/>
	<path fill="#B5B0CA" d="M8.805,12l0.007,0.003c0.005-0.107,0.007-0.533,0.015-1.155C8.835,10.223,8.82,9.76,8.82,9.546
		c0-0.233-0.001-0.452-0.004-0.907C8.813,8.188,8.809,7.861,8.804,7.652c-0.016-0.474-0.124-0.807-0.321-1
		C8.296,6.471,7.951,6.381,7.455,6.381c-0.291,0-0.678,0.075-1.15,0.22c-0.454,0.14-0.938,0.263-1.442,0.496L4.917,14H3.112
		l0.005-0.111c0.006-0.176,0.032-2.575,0.041-3.8C3.167,8.859,3.171,7.85,3.171,7.056c0-0.52-0.001-1.167-0.004-1.958
		C3.164,4.303,3.154,2.265,3.137,0.997L3.134,1h1.763L4.865,6.141c0.67-0.29,1.237-0.607,1.689-0.73
		c0.53-0.145,0.995-0.272,1.381-0.272c0.774,0,1.408,0.172,1.882,0.566c0.473,0.393,0.712,0.918,0.712,1.589
		c0,0.563-0.004,1.049-0.013,1.458c-0.008,0.407-0.012,0.632-0.012,0.886c0,0.406-0.014,0.908-0.003,1.396
		c0.011,0.493,0.014,0.814,0.019,0.97L10.525,12H8.805z"/>
	<path fill="#9BB5AE" d="M11.963,12l0.015-0.094c0.004-0.051,0.01-0.284,0.021-1.349c0.009-0.857,0.013-1.551,0.013-2.109
		c0-0.491-0.002-1.179-0.004-1.768c-0.003-0.586-0.013-1.63-0.03-2.415L11.973,4h1.767l-0.004,0.271
		c-0.011,0.686-0.021,1.64-0.029,2.237c-0.008,0.595-0.013,1.314-0.013,1.778c0,1.106-0.027,2.017-0.014,2.681
		c0.019,0.889,0.017,0.876,0.017,0.891L13.707,12H11.963z M11.839,2.372V0.536h1.92v1.836H11.839z"/>
	<path fill="#A58C7A" d="M22.563,13.328c-1.049-1.114-3.989-4.129-5.559-5.778c0.236-0.23,0.43-0.414,1.012-0.982
		c0.718-0.702,1.424-1.28,2.097-1.93l0.154-0.15L19.15,3.33l-0.155,0.164c-0.597,0.633-1.376,1.348-2.316,2.3
		c-0.002-0.724-0.002-1.375-0.002-1.501c0-0.148,0.001-0.618,0.004-1.404c0.003-0.78,0.013-1.371,0.029-1.965L16.714,1h-1.766
		l0.003-0.077c0.017,0.744,0.026,1.423,0.029,2c0.003,0.579,0.005,1.005,0.005,1.385c0,0.884-0.005,4.085-0.013,5.49
		c-0.011,1.746-0.031,2.051-0.035,2.116L14.925,12h1.814l-0.011-0.118c0-0.079-0.021-0.719-0.03-2.344
		c1.085,1.053,3.593,3.597,4.757,4.782l0.144,0.166l1.115-1.009L22.563,13.328z"/>
	<path fill="#D98484" d="M22.975,12l0.015-0.113c0.003-0.05,0.01-0.293,0.021-1.357c0.008-0.857,0.013-1.556,0.013-2.114
		c0-0.491-0.002-1.182-0.005-1.77c-0.003-0.586-0.013-1.613-0.029-2.397L22.984,4h1.766l-0.003,0.252
		c-0.011,0.686-0.021,1.63-0.029,2.228c-0.009,0.595-0.013,1.31-0.013,1.772c0,1.107-0.028,2.015-0.014,2.679
		c0.018,0.89,0.017,0.895,0.017,0.908L24.719,12H22.975z M22.857,2.372V0.536h1.92v1.836H22.857z"/>
</g>
</svg>
